<svg width="139px" height="46px" viewBox="0 0 139 46" version="1.1" xmlns="http://www.w3.org/2000/svg" xmlns:xlink="http://www.w3.org/1999/xlink">
        <path d="M18.4961585,36.1132173 L15.9798942,36.1132173 L15.9798942,31.1669569 L27,31.1669569 C27,34.0147606 26.8107414,36.1317372 26.4328976,37.5193114 C26.0665037,38.8548872 25.2993664,40.2096953 24.1301387,41.5837357 C22.9838106,42.9463791 21.596363,43.9379106 19.9664488,44.5633162 C18.3365346,45.1872972 16.5880812,45.5 14.7224356,45.5 C11.9468669,45.5 9.42521453,45.0120696 7.15747855,44.0383459 C4.87761924,43.0895528 3.11771602,41.5153542 1.87776891,39.3164622 C0.625698463,37.1560348 0,34.7334784 0,32.0466561 C0,27.9879304 1.26352026,24.7148793 3.79123428,22.2289276 C6.29537517,19.7436882 9.36594492,18.5 13.003617,18.5 C16.0391638,18.5 18.4193774,19.2814009 20.1435841,20.842778 L20.1435841,19.0249703 L26.078627,19.0249703 L26.078627,28.1311041 L20.1435841,28.1311041 C19.623628,27.0070835 18.9474157,26.1573011 18.1149471,25.5831816 C17.2824785,25.0083498 16.3105917,24.7212901 15.2006336,24.7212901 C13.6414388,24.7212901 12.4957843,25.2583696 11.7636699,26.3325287 C11.0430054,27.4066878 10.6826731,29.3804907 10.6826731,32.2532252 C10.6826731,35.1138504 11.0605169,37.0563118 11.8168779,38.0806094 C12.5846887,39.1177285 13.7007084,39.6355758 15.1649371,39.6355758 C17.3855268,39.6355758 18.4961585,38.4616937 18.4961585,36.1132173" id="Fill-1" fill="#457BDB"></path>
        <polygon id="Fill-4" fill="#457BDB" points="51.6999969 45 27.6999969 45 27.6999969 38.7751783 29.9658252 38.7751783 29.9658252 25.2241111 27.6999969 25.2241111 27.6999969 19 42.1108851 19 42.1108851 25.2241111 39.7182586 25.2241111 39.7182586 38.7751783 45.6819075 38.7751783 45.6819075 34.6075323 51.6999969 34.6075323"></polygon>
        <path d="M96.7005858,34.1776217 L96.7005858,39.2995982 L98.8491357,39.2995982 C100.222777,39.2995982 101.210988,39.1120009 101.814445,38.7382273 C102.406427,38.3644538 102.702755,37.7050206 102.702755,36.7570855 C102.702755,35.8731039 102.436127,35.2186449 101.903546,34.7944191 C101.37029,34.3836946 100.340903,34.1776217 98.8133603,34.1776217 L96.7005858,34.1776217 Z M96.7005858,24.7011124 L96.7005858,29.4486048 L98.8133603,29.4486048 C100.245727,29.4486048 101.186688,29.2304518 101.636918,28.7948564 C102.062848,28.3585504 102.276151,27.7850993 102.276151,27.0745033 C102.276151,26.4648118 102.081073,25.9162317 101.690244,25.4294733 C101.298739,24.9441362 100.228177,24.7011124 98.4765314,24.7011124 L96.7005858,24.7011124 Z M98.9740122,45 L85,45 L85,38.7758889 L87.1485499,38.7758889 L87.1485499,25.2241111 L85,25.2241111 L85,19 L100.091825,19 C103.05106,19 105.341361,19.181202 106.963405,19.5421848 C108.561823,19.9159583 109.815988,20.6571101 110.727249,21.7663505 C111.639184,22.9004619 112.09549,24.22146 112.09549,25.7293449 C112.09549,27.1995682 111.662809,28.3713411 110.798799,29.2432425 C109.911164,30.1407254 108.833852,30.7632075 107.567537,31.1128208 C109.307707,31.6606904 110.644898,32.5077209 111.580459,33.654623 C112.52682,34.8256853 113,36.1409987 113,37.5984312 C113,39.3429446 112.467419,40.825248 111.402256,42.0474733 C110.337094,43.2554866 108.875027,44.0463801 107.016731,44.4208642 C105.182059,44.8067179 102.500928,45 98.9740122,45 L98.9740122,45 Z" id="Fill-6" fill="#457BDB"></path>
        <polygon id="Fill-8" fill="#457BDB" points="139 45 115.0357 45 115.0357 38.7751783 116.986841 38.7751783 116.986841 25.2241111 115 25.2241111 115 19 139 19 139 27.3175271 132.408547 27.3175271 132.408547 25.2241111 126.702042 25.2241111 126.702042 29.2240564 131.667773 29.2240564 131.667773 34.5137336 126.702042 34.5137336 126.702042 38.7751783 132.408547 38.7751783 132.408547 36.6817623 139 36.6817623"></polygon>
        <path d="M83.1907833,25.1946667 C85.9230373,33.4666681 81.5118869,42.4157992 73.3399259,45.1808039 C65.1679648,47.9465059 56.3277521,43.482052 53.595498,35.2100506 C50.863244,26.9380493 58.4193111,0 58.4193111,0 C58.4193111,0 80.4585293,16.9226654 83.1907833,25.1946667" id="Fill-10" fill="#457BDB"></path>
        <path d="M68.9996578,40 C63.4858854,40 59,35.5141146 59,30.0003422 C59,24.4865697 63.4858854,20 68.9996578,20 C74.5134303,20 79,24.4865697 79,30.0003422 C79,35.5141146 74.5134303,40 68.9996578,40" id="Fill-12" fill="#C1272D"></path>
        <path d="M68.9996477,19 C62.9241954,19 58,23.9248999 58,29.9996477 C58,36.0751001 62.9241954,41 68.9996477,41 C75.0751001,41 80,36.0751001 80,29.9996477 C80,23.9248999 75.0751001,19 68.9996477,19 M68.9996477,20.4091273 C74.2881025,20.4091273 78.5908727,24.711193 78.5908727,29.9996477 C78.5908727,35.2881025 74.2881025,39.5908727 68.9996477,39.5908727 C63.711193,39.5908727 59.4091273,35.2881025 59.4091273,29.9996477 C59.4091273,24.711193 63.711193,20.4091273 68.9996477,20.4091273" id="Fill-14" fill="#FFFFFF"></path>
</svg>